<?xml version="1.0" encoding="utf-8"?>
<!-- Generator: Adobe Illustrator 16.0.4, SVG Export Plug-In . SVG Version: 6.00 Build 0)  -->
<!DOCTYPE svg PUBLIC "-//W3C//DTD SVG 1.1//EN" "http://www.w3.org/Graphics/SVG/1.1/DTD/svg11.dtd">
<svg version="1.1" xmlns="http://www.w3.org/2000/svg" xmlns:xlink="http://www.w3.org/1999/xlink" preserveAspectRatio="xMidYMid meet" viewBox="321 221 500 126"><g data-item-type="text" data-item="Business" id="logo__item--business" class="logo__item">
                <g class="logo__item__inner" transform="translate(443.4296875 309.8582131856218) scale(2.3052291275085377 2.3052291275085377) rotate(0 0 0)">
                    <text data-part-id="logo__item--business" dy="0" dominant-baseline="auto" alignment-baseline="auto" font-family="Lobster" font-size="32px" fill="#9e2121" letter-spacing="0" font-weight="normal" font-style="normal" data-font-family="Lobster" data-font-weight="normal" data-font-style="normal" data-ttf-url="/builder_assets/fontsttf/font-montserrat-bold-normal.ttf" data-font-filename="lobster-normal-normal">Ami</text>
                </g>
            </g><g data-item-type="image" data-item="Image" data-logo-item="" id="logo__item--logo_0" class="logo__item">
    <g class="logo__item__inner" transform="translate(312.71672075454774 213) scale(1.422940691987129 1.422940691987129) rotate(0 0 0)">
        
<g>
	<radialGradient id="SVGID_1_" cx="40.1338" cy="90.8945" r="22.5828" gradientUnits="userSpaceOnUse">

	</radialGradient>
	<ellipse fill="url(#SVGID_1_)" cx="40.134" cy="90.895" rx="31.888" ry="1.771" data-part-id="logo__item--logo_0__0"></ellipse>
	<g>
		<g>
			
				<radialGradient id="SVGID_2_" cx="-740.2666" cy="-562.4063" r="22.182" gradientTransform="matrix(0.6131 -0.7389 -0.6723 -0.6738 147.909 -901.9951)" gradientUnits="userSpaceOnUse">
				<stop offset="0.3455" style="stop-color:#EC1C24"></stop>
				<stop offset="0.4061" style="stop-color:#EC1C24"></stop>
				<stop offset="0.6909" style="stop-color:#BE1E2D"></stop>
				<stop offset="1" style="stop-color:#690005"></stop>
			</radialGradient>
			<path fill="url(#SVGID_2_)" d="M51.843,8.563c0,0,7.186,2.236,11.171,8.332l3.599,5.52l7.911,9.732c0,0,1.34-6.2,1.218-6.898     c-0.116-0.691-4.833-9.051-4.833-9.051l-6.155-3.494l-4.938-2.846C59.814,9.857,54.029,8.651,51.843,8.563z" data-part-id="logo__item--logo_0__1"></path>
			
				<radialGradient id="SVGID_3_" cx="-18.8472" cy="47.7925" r="44.2421" gradientTransform="matrix(-0.9073 -0.0761 -0.0692 0.9971 34.6192 -5.2078)" gradientUnits="userSpaceOnUse">
				<stop offset="0" style="stop-color:#FFFFFF"></stop>
				<stop offset="0.1216" style="stop-color:#FBFBFB"></stop>
				<stop offset="0.2493" style="stop-color:#EFEEEF"></stop>
				<stop offset="0.3758" style="stop-color:#DBDADB"></stop>
				<stop offset="0.5152" style="stop-color:#AAA8AA"></stop>
				<stop offset="0.7455" style="stop-color:#5D595A"></stop>
				<stop offset="0.8727" style="stop-color:#332F31"></stop>
				<stop offset="0.9455" style="stop-color:#740000"></stop>
				<stop offset="1" style="stop-color:#AC2224"></stop>
			</radialGradient>
			<path fill="url(#SVGID_3_)" d="M36.375,19.956C19.512,27.417,11.346,48.5,18.139,67.033c6.798,18.529,25.986,27.505,42.849,20.03     C77.851,79.59,86.011,58.52,79.213,39.985C72.414,21.45,53.237,12.482,36.375,19.956z" data-part-id="logo__item--logo_0__2"></path>
			
				<radialGradient id="SVGID_4_" cx="-53.9272" cy="-8.0156" r="51.7799" gradientTransform="matrix(-0.6434 -0.7071 -0.6434 0.7071 44.3398 19.4639)" gradientUnits="userSpaceOnUse">
				<stop offset="0.097" style="stop-color:#F6921E"></stop>
				<stop offset="0.3455" style="stop-color:#EC1C24"></stop>
				<stop offset="0.4061" style="stop-color:#EC1C24"></stop>
				<stop offset="0.6909" style="stop-color:#BE1E2D"></stop>
				<stop offset="1" style="stop-color:#690005"></stop>
			</radialGradient>
			<path fill="url(#SVGID_4_)" d="M80.78,77.077c-13.593,16.374-36.483,17.886-51.752,3.675c1.279-0.735,2.773-1.462,4.523-2.17     c1.616-0.647,9.798-3.344,15.279-5.979c8.93-4.295,21.48-13.097,23.966-29.141c0,0,3.72-19.896-11.638-31.356     c0,0-3.692-2.845-9.87-3.72c9.604-0.532,19.393,2.983,27.06,10.668C93.601,34.338,94.69,60.313,80.78,77.077z" data-part-id="logo__item--logo_0__3"></path>
			
				<radialGradient id="SVGID_5_" cx="62.0859" cy="40.3262" r="39.4319" gradientTransform="matrix(0.91 0 0 1 1.1461 0)" gradientUnits="userSpaceOnUse">
				<stop offset="0" style="stop-color:#00ADEE"></stop>
				<stop offset="0.3697" style="stop-color:#1B75BB"></stop>
				<stop offset="0.5697" style="stop-color:#2B388F"></stop>
				<stop offset="0.8303" style="stop-color:#262261"></stop>
				<stop offset="1" style="stop-color:#0C003B"></stop>
			</radialGradient>
			<path fill="url(#SVGID_5_)" d="M36.375,19.956C19.673,27.346,11.512,48.089,17.951,66.48     C32.882,56.736,52.85,49.274,52.85,49.274c19.692-8.924,10.265-26.899,10.265-26.899c-0.354-0.725-0.754-1.379-1.18-1.982     C54.096,16.601,44.939,16.157,36.375,19.956z" data-part-id="logo__item--logo_0__4"></path>
		</g>
	</g>
</g>

    </g>
</g><g data-item-type="text" id="logo__item--tagline_1" data-item="Tagline" class="logo__item">
    <g class="logo__item__inner" transform="translate(579 310) scale(2.4408389837245177 2.4408389837245177) rotate(0 0 0)">
        <text dy="0" dominant-baseline="auto" alignment-baseline="auto" font-family="Pacifico" font-size="18px" fill="#444444" letter-spacing="2" data-font-family="Pacifico" data-font-weight="normal" data-font-style="normal" font-weight="normal" font-style="normal" data-ttf-url="/builder_assets/fontsttf/font-open-sans-normal-normal.ttf" data-part-id="logo__item--tagline_1__0" data-font-filename="pacifico-normal-normal">Blo</text>
    </g>
</g><g data-item-type="text" id="logo__item--tagline_2" data-item="Tagline" class="logo__item">
	<g class="logo__item__inner" transform="translate(579 310) scale(2.4408389837245177 2.4408389837245177) rotate(0 0 0)">
		<text dx="29" dy="0" dominant-baseline="auto" alignment-baseline="auto" font-family="Pacifico" font-size="45px" fill="#444444" letter-spacing="2" data-font-family="Pacifico" data-font-weight="normal" data-font-style="normal" font-weight="normal" font-style="normal" data-ttf-url="/builder_assets/fontsttf/font-open-sans-normal-normal.ttf" data-part-id="logo__item--tagline_2__0" data-font-filename="pacifico-normal-normal">g</text>
	</g>
</g>
	<g data-item-type="text" id="logo__item--tagline_3" data-item="Tagline" class="logo__item">
		<g class="logo__item__inner" transform="translate(579 310) scale(2.4408389837245177 2.4408389837245177) rotate(0 0 0)">
			<text dx="34.5" dy="4.8" dominant-baseline="auto" alignment-baseline="auto" font-family="Pacifico" font-size="5px" fill="#9e2121" letter-spacing="0" data-font-family="Pacifico" data-font-weight="normal" data-font-style="normal" font-weight="normal" font-style="normal" data-ttf-url="/builder_assets/fontsttf/font-open-sans-normal-normal.ttf" data-part-id="logo__item--tagline_3__0" data-font-filename="pacifico-normal-normal">admin</text>
		</g>
	</g></svg>